<svg width="212" height="261" viewBox="0 0 212 261" fill="none" xmlns="http://www.w3.org/2000/svg">
<path d="M105.788 54.6038C69.932 54.6038 40.6382 83.8976 40.6382 119.753C40.6382 138.501 48.8405 156.546 62.6672 168.733C72.9786 179.044 70.7186 216.369 70.4842 216.603C70.4842 217.775 70.7186 218.712 71.656 219.65C72.359 220.353 73.5308 220.821 74.4682 220.821L127.674 207.25C128.846 207.25 129.783 206.781 130.486 206.078C131.189 205.375 131.658 204.203 131.658 203.032C131.658 202.797 138.362 179.044 148.674 168.733C148.908 168.498 149.143 168.264 149.377 168.03C162.969 155.609 170.937 138.033 170.937 119.753C170.937 83.8976 141.643 54.6038 105.788 54.6038ZM143.284 162.64C143.049 162.874 142.581 163.343 142.581 163.577C133.441 173.42 123.925 191.314 123.69 199.048L78.4521 212.619C78.2178 204.885 77.9 172.717 68.0572 162.64C55.6366 151.859 48.3718 136.158 48.3718 119.519C48.3718 87.8816 73.916 62.3373 105.553 62.3373C137.191 62.3373 162.735 87.8816 162.735 119.519C162.735 136.158 155.704 151.859 143.284 162.64Z" fill="#3B54A9"/>
<path d="M123.232 214.721L81.7721 225.83C77.4766 226.981 74.879 231.481 76.03 235.776C77.1809 240.071 81.6801 242.669 85.9756 241.518L127.249 230.459C131.681 229.071 134.329 224.759 133.178 220.463C132.027 216.168 127.528 213.57 123.232 214.721ZM125.684 223.872L84.2241 234.982C83.4771 235.182 82.5799 234.822 82.3297 233.888C82.0795 232.954 82.4896 232.244 83.4234 231.993L124.697 220.934C125.444 220.734 126.341 221.094 126.591 222.028C126.842 222.962 126.431 223.672 125.684 223.872Z" fill="#5465FF"/>
<path d="M122.124 235.234L92.9898 243.041C88.6944 244.192 86.0968 248.691 87.2477 252.986C88.3987 257.282 92.8979 259.879 97.1933 258.729L126.328 250.922C130.623 249.771 133.221 245.272 132.07 240.976C130.869 236.494 126.42 234.083 122.124 235.234ZM124.576 244.385L95.4419 252.192C94.6948 252.392 93.7977 252.032 93.5475 251.098C93.2973 250.164 93.7074 249.454 94.6412 249.204L123.775 241.397C124.522 241.197 125.42 241.557 125.67 242.491C125.92 243.425 125.323 244.185 124.576 244.385Z" fill="#5465FF"/>
<path d="M105.553 35.1526C107.897 35.1526 109.537 33.2778 109.537 31.1687V3.98397C109.537 1.87481 107.662 0 105.553 0C103.444 0 101.569 1.87481 101.569 3.98397V31.1687C101.569 33.2778 103.444 35.1526 105.553 35.1526Z" fill="#5465FF"/>
<path d="M171.875 20.1545C170 18.7484 167.656 19.4515 166.484 21.092L151.486 43.5896C150.08 45.4644 150.549 48.0423 152.423 49.2141C153.126 49.6828 153.83 49.9171 154.533 49.9171C155.939 49.9171 157.11 49.2141 157.814 48.0423L172.812 25.5446C174.218 23.9042 173.749 21.3263 171.875 20.1545Z" fill="#5465FF"/>
<path d="M57.9802 48.9797C58.6833 48.9797 59.3864 48.7454 60.0894 48.2767C61.9642 47.1049 62.4329 44.527 61.2612 42.6522L46.7314 19.9202C45.5596 18.0454 42.9818 17.5767 41.107 18.7485C39.2322 19.9202 38.7635 22.4981 39.9352 24.3729L54.465 47.1049C55.4024 48.511 56.5741 48.9797 57.9802 48.9797Z" fill="#5465FF"/>
<path d="M29.624 73.8208L5.95454 60.9315C4.07974 59.9941 1.50188 60.6971 0.564474 62.5719C-0.60728 64.4467 0.0957717 67.0246 2.20493 67.962L25.8744 80.8513C26.5774 81.0857 27.0461 81.32 27.7492 81.32C29.1553 81.32 30.5614 80.617 31.2644 79.2108C32.2018 77.336 31.4988 74.7582 29.624 73.8208Z" fill="#5465FF"/>
<path d="M210.777 62.5719C209.84 60.6971 207.262 59.9941 205.387 60.9315L181.483 73.8208C179.608 74.7582 178.905 77.336 179.843 79.2108C180.546 80.617 181.952 81.32 183.358 81.32C184.061 81.32 184.764 81.0857 185.233 80.8513L209.137 67.962C211.011 67.0246 211.714 64.4467 210.777 62.5719Z" fill="#5465FF"/>
<path d="M100.483 156.814V148.671C98.0946 148.4 95.5704 147.749 92.9104 146.717C90.3046 145.631 88.0518 144.22 86.1518 142.483L91.3632 134.421C93.4261 135.996 95.3804 137.19 97.2261 138.004C99.1261 138.764 101.053 139.144 103.008 139.144C105.288 139.144 106.943 138.683 107.975 137.76C109.06 136.837 109.603 135.426 109.603 133.526C109.603 132.114 109.06 130.92 107.975 129.943C106.943 128.966 105.613 128.043 103.985 127.174C102.41 126.251 100.7 125.356 98.8546 124.487C97.0089 123.564 95.2718 122.479 93.6432 121.23C92.0689 119.981 90.7389 118.516 89.6532 116.833C88.6218 115.15 88.1061 113.087 88.1061 110.644C88.1061 106.627 89.1918 103.316 91.3632 100.71C93.5889 98.05 96.6289 96.34 100.483 95.58V87.1929H108.382V95.4172C110.988 95.7972 113.268 96.5843 115.222 97.7786C117.176 98.9729 118.94 100.411 120.515 102.094L114.489 108.934C113.023 107.577 111.612 106.573 110.255 105.921C108.898 105.216 107.35 104.863 105.613 104.863C103.659 104.863 102.166 105.27 101.135 106.084C100.103 106.899 99.5875 108.229 99.5875 110.074C99.5875 111.377 100.103 112.49 101.135 113.413C102.22 114.281 103.55 115.123 105.125 115.937C106.753 116.751 108.49 117.593 110.336 118.461C112.182 119.33 113.892 120.389 115.466 121.637C117.095 122.886 118.425 124.406 119.456 126.197C120.542 127.934 121.085 130.106 121.085 132.711C121.085 136.62 120.026 139.986 117.909 142.809C115.792 145.577 112.616 147.423 108.382 148.346V156.814H100.483Z" fill="#5465FF"/>
</svg>
