<svg width="375" height="96" viewBox="0 0 375 96" fill="none" xmlns="http://www.w3.org/2000/svg">
<path d="M0 0H375V95.0001C375 95.0001 325.773 82.1517 293.5 81.0001C252.739 79.5455 230.787 94.7502 190 95.0001C147.278 95.2618 124.186 79.2149 81.5 81.0001C49.2343 82.3494 0 95.0001 0 95.0001V0Z" fill="#364E9B"/>
<path d="M0 0H375V80.0001C375 80.0001 323.691 93.9408 290 95.0001C248.985 96.2895 227.034 80.2916 186 80.0001C142.839 79.6934 119.59 97.4798 76.5 95.0001C46.1063 93.251 0 80.0001 0 80.0001V0Z" fill="#6B81EE"/>
</svg>
