<svg width="163" height="201" viewBox="0 0 163 201" fill="none" xmlns="http://www.w3.org/2000/svg">
<path d="M81.6481 41.8894C53.9742 41.8894 31.3647 64.3622 31.3647 91.8689C31.3647 106.251 37.6954 120.095 48.367 129.443C56.3255 137.354 54.5812 165.987 54.4003 166.167C54.4003 167.066 54.5812 167.785 55.3047 168.504C55.8473 169.044 56.7517 169.403 57.4752 169.403L98.5404 158.992C98.5404 158.992 100.168 158.632 100.711 158.093C101.253 157.554 101.615 155.756 101.615 155.756C101.615 155.756 106.79 137.354 114.748 129.443C114.929 129.264 115.11 129.084 115.291 128.904C125.782 119.376 131.931 105.892 131.931 91.8689C131.931 64.3622 109.322 41.8894 81.6481 41.8894ZM110.588 124.769C110.407 124.949 110.045 125.308 110.045 125.488C102.991 133.039 95.6463 146.767 95.4655 152.699L60.5501 163.111C60.3692 157.178 60.1239 132.5 52.5271 124.769C42.9408 116.499 37.3336 104.454 37.3336 91.6891C37.3336 67.4185 57.049 47.8222 81.4672 47.8222C105.885 47.8222 125.601 67.4185 125.601 91.6891C125.601 104.454 120.174 116.499 110.588 124.769Z" fill="#F2F2F2"/>
<path d="M95.1124 164.723L63.1128 173.246C59.7975 174.129 57.7927 177.58 58.681 180.876C59.5693 184.171 63.0419 186.164 66.3571 185.281L98.2126 176.797C101.633 175.732 103.677 172.424 102.789 169.128C101.9 165.833 98.4277 163.84 95.1124 164.723ZM97.0049 171.744L65.0053 180.266C64.4288 180.42 63.7363 180.143 63.5432 179.427C63.3501 178.711 63.6667 178.166 64.3874 177.974L96.2428 169.49C96.8194 169.336 97.5118 169.612 97.705 170.329C97.8981 171.045 97.5815 171.59 97.0049 171.744Z" fill="#F2F2F2"/>
<path d="M94.2572 180.46L71.771 186.449C68.4557 187.332 66.4509 190.783 67.3392 194.078C68.2275 197.374 71.7001 199.366 75.0153 198.483L97.5016 192.495C100.817 191.612 102.822 188.16 101.933 184.865C101.006 181.426 97.5725 179.577 94.2572 180.46ZM96.1498 187.48L73.6635 193.469C73.087 193.623 72.3945 193.346 72.2014 192.63C72.0083 191.914 72.3249 191.369 73.0456 191.177L95.5318 185.188C96.1084 185.034 96.8008 185.311 96.9939 186.027C97.187 186.743 96.7263 187.327 96.1498 187.48Z" fill="#F2F2F2"/>
<path d="M81.4675 26.9673C83.2762 26.9673 84.5423 25.5291 84.5423 23.911V3.0563C84.5423 1.43826 83.0953 0 81.4675 0C79.8396 0 78.3926 1.43826 78.3926 3.0563V23.911C78.3926 25.5291 79.8396 26.9673 81.4675 26.9673Z" fill="#F2F2F2"/>
<path d="M132.655 15.4617C131.208 14.383 129.399 14.9223 128.495 16.1808L116.919 33.4399C115.834 34.8781 116.196 36.8558 117.643 37.7547C118.185 38.1142 118.728 38.294 119.27 38.294C120.356 38.294 121.26 37.7547 121.803 36.8558L133.379 19.5967C134.464 18.3382 134.102 16.3606 132.655 15.4617Z" fill="#F2F2F2"/>
<path d="M44.7498 37.5748C45.2924 37.5748 45.8351 37.395 46.3777 37.0355C47.8247 36.1366 48.1864 34.1589 47.2821 32.7207L36.0678 15.2818C35.1634 13.8436 33.1738 13.484 31.7268 14.3829C30.2798 15.2818 29.918 17.2594 30.8224 18.6977L42.0367 36.1366C42.7602 37.2152 43.6646 37.5748 44.7498 37.5748Z" fill="#F2F2F2"/>
<path d="M22.8642 56.6317L4.5958 46.7437C3.1488 46.0245 1.15917 46.5639 0.435669 48.0021C-0.468708 49.4404 0.0739179 51.418 1.7018 52.1371L19.9702 62.0252C20.5128 62.205 20.8746 62.3847 21.4172 62.3847C22.5024 62.3847 23.5877 61.8454 24.1303 60.7667C24.8538 59.3284 24.3112 57.3508 22.8642 56.6317Z" fill="#F2F2F2"/>
<path d="M162.681 48.0021C161.957 46.5639 159.968 46.0245 158.521 46.7437L140.071 56.6317C138.624 57.3508 138.082 59.3284 138.805 60.7667C139.348 61.8454 140.433 62.3847 141.518 62.3847C142.061 62.3847 142.604 62.205 142.965 62.0252L161.415 52.1371C162.862 51.418 163.404 49.4404 162.681 48.0021Z" fill="#F2F2F2"/>
<path d="M97.362 107.229C97.362 110.612 96.2619 113.526 94.0619 115.969C91.8618 118.412 89.0039 119.921 85.4882 120.496V126.3C85.4882 126.61 85.3887 126.864 85.1896 127.063C84.9906 127.262 84.7364 127.362 84.4268 127.362H79.9492C79.6618 127.362 79.413 127.257 79.203 127.047C78.9929 126.837 78.8879 126.588 78.8879 126.3V120.496C77.4285 120.297 76.0189 119.954 74.6591 119.468C73.2992 118.982 72.1771 118.49 71.2926 117.992C70.4082 117.495 69.59 116.964 68.8383 116.4C68.0865 115.836 67.5724 115.422 67.296 115.156C67.0196 114.891 66.8261 114.692 66.7156 114.559C66.3397 114.095 66.3176 113.642 66.6492 113.199L70.0654 108.722C70.2202 108.501 70.4745 108.368 70.8283 108.324C71.16 108.28 71.4253 108.379 71.6243 108.622L71.6906 108.689C74.1892 110.878 76.8758 112.26 79.7502 112.835C80.5684 113.011 81.3865 113.1 82.2046 113.1C83.9956 113.1 85.5711 112.625 86.9309 111.674C88.2908 110.723 88.9707 109.374 88.9707 107.627C88.9707 107.008 88.8049 106.422 88.4732 105.869C88.1415 105.317 87.7712 104.852 87.3621 104.476C86.953 104.101 86.3063 103.686 85.4218 103.233C84.5374 102.779 83.8077 102.426 83.2328 102.171C82.6579 101.917 81.7734 101.558 80.5794 101.093C79.7171 100.74 79.0371 100.463 78.5396 100.264C78.0421 100.065 77.3622 99.7722 76.4999 99.3853C75.6375 98.9983 74.9465 98.6556 74.4269 98.3571C73.9073 98.0586 73.2826 97.6661 72.553 97.1797C71.8233 96.6932 71.2318 96.2234 70.7785 95.7701C70.3252 95.3168 69.8443 94.7751 69.3358 94.1449C68.8272 93.5147 68.4347 92.8735 68.1583 92.2212C67.8819 91.5689 67.6498 90.8337 67.4618 90.0156C67.2739 89.1975 67.1799 88.3351 67.1799 87.4285C67.1799 84.3772 68.2634 81.7017 70.4303 79.4021C72.5972 77.1025 75.4164 75.621 78.8879 74.9577V68.9876C78.8879 68.7002 78.9929 68.4514 79.203 68.2414C79.413 68.0313 79.6618 67.9263 79.9492 67.9263H84.4268C84.7364 67.9263 84.9906 68.0258 85.1896 68.2248C85.3887 68.4238 85.4882 68.6781 85.4882 68.9876V74.825C86.7485 74.9577 87.9702 75.212 89.1531 75.5879C90.3361 75.9638 91.2979 76.3341 92.0387 76.699C92.7794 77.0638 93.4814 77.4784 94.1448 77.9427C94.8081 78.4071 95.2393 78.7277 95.4383 78.9046C95.6373 79.0815 95.8031 79.2363 95.9358 79.3689C96.3117 79.7669 96.367 80.1871 96.1016 80.6293L93.4151 85.4717C93.2382 85.8034 92.9839 85.9802 92.6523 86.0024C92.3427 86.0687 92.0442 85.9913 91.7567 85.7702C91.6904 85.7039 91.5301 85.5712 91.2758 85.3722C91.0215 85.1732 90.5904 84.8802 89.9823 84.4933C89.3742 84.1063 88.7275 83.7525 88.042 83.4319C87.3566 83.1113 86.5329 82.8238 85.5711 82.5696C84.6092 82.3153 83.664 82.1881 82.7353 82.1881C80.6347 82.1881 78.9211 82.6635 77.5944 83.6143C76.2677 84.5651 75.6043 85.7923 75.6043 87.2959C75.6043 87.8708 75.6983 88.4014 75.8863 88.8879C76.0742 89.3743 76.4004 89.8332 76.8647 90.2643C77.329 90.6955 77.7657 91.0603 78.1748 91.3588C78.5839 91.6574 79.203 92.0001 80.0322 92.387C80.8613 92.774 81.5302 93.0725 82.0388 93.2825C82.5473 93.4926 83.3212 93.7966 84.3605 94.1946C85.5324 94.6369 86.4279 94.9851 87.047 95.2394C87.6661 95.4937 88.5064 95.8806 89.5677 96.4003C90.6291 96.9199 91.4638 97.3897 92.0718 97.8099C92.6799 98.23 93.3653 98.7828 94.1282 99.4682C94.891 100.154 95.477 100.856 95.886 101.574C96.2951 102.293 96.6434 103.139 96.9308 104.112C97.2183 105.085 97.362 106.124 97.362 107.229Z" fill="#F2F2F2"/>
</svg>
