<svg width="113" height="25" viewBox="0 0 113 25" fill="none" xmlns="http://www.w3.org/2000/svg">
<path d="M8.19791 19C7.84591 19 7.54991 18.88 7.30991 18.64C7.06991 18.4 6.94991 18.104 6.94991 17.752V2.56H1.76591C1.42991 2.56 1.14991 2.456 0.925906 2.248C0.717906 2.024 0.613906 1.744 0.613906 1.408C0.613906 1.072 0.717906 0.8 0.925906 0.592C1.14991 0.368 1.42991 0.256 1.76591 0.256H14.6059C14.9419 0.256 15.2139 0.368 15.4219 0.592C15.6459 0.8 15.7579 1.072 15.7579 1.408C15.7579 1.744 15.6459 2.024 15.4219 2.248C15.2139 2.456 14.9419 2.56 14.6059 2.56H9.44591V17.752C9.44591 18.104 9.32591 18.4 9.08591 18.64C8.84591 18.88 8.54991 19 8.19791 19ZM20.1917 19.12C19.0877 19.12 18.0957 18.888 17.2157 18.424C16.3517 17.944 15.6637 17.248 15.1517 16.336C14.6557 15.424 14.4077 14.304 14.4077 12.976V7.072C14.4077 6.72 14.5197 6.432 14.7437 6.208C14.9837 5.968 15.2797 5.848 15.6317 5.848C15.9837 5.848 16.2717 5.968 16.4957 6.208C16.7357 6.432 16.8557 6.72 16.8557 7.072V12.976C16.8557 14.336 17.2157 15.336 17.9357 15.976C18.6717 16.6 19.5837 16.912 20.6717 16.912C21.3597 16.912 21.9677 16.776 22.4957 16.504C23.0397 16.232 23.4717 15.864 23.7917 15.4C24.1117 14.936 24.2717 14.416 24.2717 13.84V7.072C24.2717 6.704 24.3837 6.408 24.6077 6.184C24.8477 5.96 25.1437 5.848 25.4957 5.848C25.8637 5.848 26.1597 5.96 26.3837 6.184C26.6077 6.408 26.7197 6.704 26.7197 7.072V17.776C26.7197 18.128 26.6077 18.424 26.3837 18.664C26.1597 18.888 25.8637 19 25.4957 19C25.1437 19 24.8477 18.888 24.6077 18.664C24.3837 18.424 24.2717 18.128 24.2717 17.776V17.512C23.7757 18.008 23.1757 18.4 22.4717 18.688C21.7677 18.976 21.0077 19.12 20.1917 19.12ZM35.8071 19C35.0071 19 34.2871 18.8 33.6471 18.4C33.0071 17.984 32.5031 17.424 32.1351 16.72C31.7671 16.016 31.5831 15.224 31.5831 14.344V8.416H30.4791C30.1431 8.416 29.8711 8.32 29.6631 8.128C29.4551 7.936 29.3511 7.696 29.3511 7.408C29.3511 7.088 29.4551 6.832 29.6631 6.64C29.8711 6.448 30.1431 6.352 30.4791 6.352H31.5831V2.896C31.5831 2.544 31.6951 2.256 31.9191 2.032C32.1431 1.808 32.4311 1.696 32.7831 1.696C33.1351 1.696 33.4231 1.808 33.6471 2.032C33.8711 2.256 33.9831 2.544 33.9831 2.896V6.352H36.0231C36.3591 6.352 36.6311 6.448 36.8391 6.64C37.0471 6.832 37.1511 7.088 37.1511 7.408C37.1511 7.696 37.0471 7.936 36.8391 8.128C36.6311 8.32 36.3591 8.416 36.0231 8.416H33.9831V14.344C33.9831 14.984 34.1591 15.52 34.5111 15.952C34.8631 16.384 35.2951 16.6 35.8071 16.6H36.6231C36.9111 16.6 37.1511 16.712 37.3431 16.936C37.5511 17.16 37.6551 17.448 37.6551 17.8C37.6551 18.152 37.5191 18.44 37.2471 18.664C36.9911 18.888 36.6551 19 36.2391 19H35.8071ZM43.0159 24.76C42.8559 24.76 42.6639 24.712 42.4399 24.616C41.7359 24.296 41.5439 23.792 41.8639 23.104L44.2639 17.704L38.8639 7.456C38.7039 7.152 38.6799 6.864 38.7919 6.592C38.9199 6.304 39.1359 6.096 39.4399 5.968C39.7439 5.84 40.0319 5.832 40.3039 5.944C40.5759 6.04 40.7839 6.24 40.9279 6.544L45.3199 15.28L49.1839 6.568C49.5039 5.896 50.0079 5.704 50.6959 5.992C51.4159 6.296 51.6159 6.8 51.2959 7.504L43.9519 24.016C43.7599 24.512 43.4479 24.76 43.0159 24.76Z" fill="#3F4878"/>
<path d="M62.2414 19.24C60.9454 19.24 59.7294 19 58.5934 18.52C57.4734 18.024 56.4894 17.344 55.6414 16.48C54.8094 15.6 54.1534 14.576 53.6734 13.408C53.2094 12.24 52.9774 10.976 52.9774 9.616C52.9774 8.272 53.2094 7.024 53.6734 5.872C54.1534 4.704 54.8094 3.688 55.6414 2.824C56.4894 1.944 57.4734 1.256 58.5934 0.759999C59.7134 0.263999 60.9294 0.0159998 62.2414 0.0159998C63.4734 0.0159998 64.5294 0.176 65.4094 0.495999C66.3054 0.815999 67.2014 1.344 68.0974 2.08C68.2894 2.24 68.4174 2.392 68.4814 2.536C68.5454 2.68 68.5774 2.856 68.5774 3.064C68.5774 3.368 68.4654 3.624 68.2414 3.832C68.0334 4.024 67.7774 4.136 67.4734 4.168C67.1694 4.184 66.8734 4.08 66.5854 3.856C65.9934 3.344 65.3774 2.952 64.7374 2.68C64.1134 2.408 63.2814 2.272 62.2414 2.272C61.2974 2.272 60.4094 2.464 59.5774 2.848C58.7454 3.232 58.0094 3.76 57.3694 4.432C56.7454 5.104 56.2574 5.888 55.9054 6.784C55.5534 7.664 55.3774 8.608 55.3774 9.616C55.3774 10.64 55.5534 11.6 55.9054 12.496C56.2574 13.376 56.7454 14.152 57.3694 14.824C58.0094 15.496 58.7454 16.024 59.5774 16.408C60.4094 16.776 61.2974 16.96 62.2414 16.96C63.0574 16.96 63.8254 16.824 64.5454 16.552C65.2814 16.264 65.9854 15.872 66.6574 15.376C66.9454 15.168 67.2254 15.08 67.4974 15.112C67.7854 15.128 68.0254 15.24 68.2174 15.448C68.4094 15.64 68.5054 15.912 68.5054 16.264C68.5054 16.6 68.3774 16.896 68.1214 17.152C66.3934 18.544 64.4334 19.24 62.2414 19.24ZM76.7687 19.096C75.6007 19.096 74.5527 18.808 73.6247 18.232C72.6967 17.64 71.9607 16.848 71.4167 15.856C70.8887 14.848 70.6247 13.712 70.6247 12.448C70.6247 11.184 70.9127 10.048 71.4887 9.04C72.0807 8.032 72.8727 7.24 73.8647 6.664C74.8727 6.072 76.0007 5.776 77.2487 5.776C78.4967 5.776 79.6167 6.072 80.6087 6.664C81.6007 7.24 82.3847 8.032 82.9607 9.04C83.5527 10.048 83.8487 11.184 83.8487 12.448V17.8C83.8487 18.152 83.7287 18.448 83.4887 18.688C83.2647 18.912 82.9767 19.024 82.6247 19.024C82.2727 19.024 81.9767 18.912 81.7367 18.688C81.5127 18.448 81.4007 18.152 81.4007 17.8V16.912C80.8407 17.584 80.1607 18.12 79.3607 18.52C78.5767 18.904 77.7127 19.096 76.7687 19.096ZM77.2487 16.936C78.0647 16.936 78.7927 16.744 79.4327 16.36C80.0727 15.96 80.5767 15.424 80.9447 14.752C81.3127 14.064 81.4967 13.296 81.4967 12.448C81.4967 11.584 81.3127 10.816 80.9447 10.144C80.5767 9.456 80.0727 8.92 79.4327 8.536C78.7927 8.136 78.0647 7.936 77.2487 7.936C76.4487 7.936 75.7207 8.136 75.0647 8.536C74.4247 8.92 73.9127 9.456 73.5287 10.144C73.1607 10.816 72.9767 11.584 72.9767 12.448C72.9767 13.296 73.1607 14.064 73.5287 14.752C73.9127 15.424 74.4247 15.96 75.0647 16.36C75.7207 16.744 76.4487 16.936 77.2487 16.936ZM92.268 19.096C91.148 19.096 90.108 18.928 89.148 18.592C88.204 18.24 87.468 17.8 86.94 17.272C86.7 17.016 86.596 16.728 86.628 16.408C86.676 16.072 86.836 15.8 87.108 15.592C87.428 15.336 87.74 15.232 88.044 15.28C88.364 15.312 88.636 15.448 88.86 15.688C89.132 15.992 89.564 16.28 90.156 16.552C90.764 16.808 91.436 16.936 92.172 16.936C93.1 16.936 93.804 16.784 94.284 16.48C94.78 16.176 95.036 15.784 95.052 15.304C95.068 14.824 94.836 14.408 94.356 14.056C93.892 13.704 93.036 13.416 91.788 13.192C90.172 12.872 88.996 12.392 88.26 11.752C87.54 11.112 87.18 10.328 87.18 9.4C87.18 8.584 87.42 7.912 87.9 7.384C88.38 6.84 88.996 6.44 89.748 6.184C90.5 5.912 91.284 5.776 92.1 5.776C93.156 5.776 94.092 5.944 94.908 6.28C95.724 6.616 96.372 7.08 96.852 7.672C97.076 7.928 97.18 8.2 97.164 8.488C97.148 8.76 97.012 8.992 96.756 9.184C96.5 9.36 96.196 9.416 95.844 9.352C95.492 9.288 95.196 9.144 94.956 8.92C94.556 8.536 94.124 8.272 93.66 8.128C93.196 7.984 92.66 7.912 92.052 7.912C91.348 7.912 90.748 8.032 90.252 8.272C89.772 8.512 89.532 8.864 89.532 9.328C89.532 9.616 89.604 9.88 89.748 10.12C89.908 10.344 90.212 10.552 90.66 10.744C91.108 10.92 91.764 11.096 92.628 11.272C94.436 11.624 95.684 12.128 96.372 12.784C97.076 13.424 97.428 14.216 97.428 15.16C97.428 15.896 97.228 16.56 96.828 17.152C96.444 17.744 95.868 18.216 95.1 18.568C94.348 18.92 93.404 19.096 92.268 19.096ZM101.747 19.024C101.395 19.024 101.099 18.912 100.859 18.688C100.635 18.448 100.523 18.152 100.523 17.8V7.096C100.523 6.728 100.635 6.432 100.859 6.208C101.099 5.984 101.395 5.872 101.747 5.872C102.115 5.872 102.411 5.984 102.635 6.208C102.859 6.432 102.971 6.728 102.971 7.096V7.36C103.467 6.864 104.067 6.472 104.771 6.184C105.475 5.896 106.235 5.752 107.051 5.752C108.155 5.752 109.139 5.992 110.003 6.472C110.883 6.936 111.571 7.624 112.067 8.536C112.579 9.448 112.835 10.568 112.835 11.896V17.8C112.835 18.152 112.715 18.448 112.475 18.688C112.251 18.912 111.963 19.024 111.611 19.024C111.259 19.024 110.963 18.912 110.723 18.688C110.499 18.448 110.387 18.152 110.387 17.8V11.896C110.387 10.536 110.019 9.544 109.283 8.92C108.563 8.28 107.659 7.96 106.571 7.96C105.899 7.96 105.291 8.096 104.747 8.368C104.203 8.64 103.771 9.008 103.451 9.472C103.131 9.92 102.971 10.44 102.971 11.032V17.8C102.971 18.152 102.859 18.448 102.635 18.688C102.411 18.912 102.115 19.024 101.747 19.024ZM101.747 14.224C101.395 14.224 101.099 14.112 100.859 13.888C100.635 13.648 100.523 13.352 100.523 13V1.48C100.523 1.112 100.635 0.816 100.859 0.592C101.099 0.368 101.395 0.256 101.747 0.256C102.115 0.256 102.411 0.368 102.635 0.592C102.859 0.816 102.971 1.112 102.971 1.48V13C102.971 13.352 102.859 13.648 102.635 13.888C102.411 14.112 102.115 14.224 101.747 14.224Z" fill="#E8AD61"/>
</svg>
