<svg width="20" height="21" viewBox="0 0 20 21" fill="none" xmlns="http://www.w3.org/2000/svg">
<path d="M14.1898 3.1721C14.445 3.3162 14.7471 3.35407 15.0303 3.27746C15.3134 3.20085 15.5546 3.01597 15.7012 2.76316C15.8226 2.55024 16.0115 2.38338 16.2384 2.28876C16.4654 2.19413 16.7175 2.17709 16.9552 2.24031C17.1929 2.30352 17.4028 2.44342 17.552 2.63806C17.7012 2.83269 17.7812 3.07106 17.7795 3.31579C17.7795 3.60892 17.6624 3.89005 17.454 4.09733C17.2455 4.3046 16.9629 4.42105 16.6681 4.42105C16.3734 4.42105 16.0907 4.5375 15.8823 4.74478C15.6739 4.95205 15.5568 5.23318 15.5568 5.52632C15.5568 5.81945 15.6739 6.10058 15.8823 6.30785C16.0907 6.51513 16.3734 6.63158 16.6681 6.63158C17.2533 6.63121 17.828 6.47768 18.3346 6.18642C18.8412 5.89516 19.2618 5.47643 19.5541 4.9723C19.8465 4.46818 20.0002 3.89641 20 3.31446C19.9998 2.73251 19.8455 2.16087 19.5528 1.65697C19.2601 1.15308 18.8391 0.734688 18.3323 0.443833C17.8255 0.152978 17.2506 -9.31672e-05 16.6654 4.25433e-08C16.0803 9.32523e-05 15.5055 0.153347 14.9987 0.444364C14.492 0.73538 14.0712 1.15391 13.7786 1.65789C13.7051 1.78404 13.6575 1.9234 13.6384 2.06795C13.6193 2.21249 13.6291 2.35936 13.6674 2.50011C13.7056 2.64085 13.7714 2.77269 13.8611 2.88802C13.9508 3.00335 14.0625 3.0999 14.1898 3.1721ZM18.9686 11.0526C18.6769 11.015 18.382 11.0939 18.1487 11.2721C17.9154 11.4502 17.7626 11.7131 17.7239 12.0032C17.4907 13.8768 16.5767 15.6009 15.154 16.8508C13.7314 18.1008 11.8983 18.7903 10.0001 18.7895H3.78766L4.51003 18.0711C4.71702 17.864 4.8332 17.5838 4.8332 17.2918C4.8332 16.9998 4.71702 16.7197 4.51003 16.5126C3.42642 15.4307 2.68897 14.0541 2.39058 12.5561C2.0922 11.0581 2.24622 9.50583 2.83324 8.09476C3.42026 6.68368 4.41403 5.47693 5.68938 4.62651C6.96472 3.77609 8.46459 3.32003 10.0001 3.31579C10.2948 3.31579 10.5775 3.19934 10.7859 2.99206C10.9943 2.78479 11.1114 2.50366 11.1114 2.21053C11.1114 1.91739 10.9943 1.63626 10.7859 1.42899C10.5775 1.22171 10.2948 1.10526 10.0001 1.10526C8.12104 1.11306 6.28223 1.6471 4.69429 2.64621C3.10635 3.64533 1.83351 5.06909 1.0216 6.7544C0.20969 8.4397 -0.108455 10.3184 0.103613 12.1752C0.315681 14.032 1.04938 15.7919 2.22067 17.2532L0.320274 19.11C0.166066 19.2654 0.0616044 19.4628 0.020069 19.6772C-0.0214664 19.8916 0.00178581 20.1135 0.0868917 20.3147C0.170265 20.5166 0.311847 20.6894 0.493797 20.8113C0.675746 20.9333 0.889919 20.9989 1.10933 21H10.0001C12.4355 21.0003 14.7874 20.1169 16.6146 18.5154C18.4417 16.914 19.6186 14.7045 19.9243 12.3016C19.9447 12.1571 19.936 12.01 19.8989 11.8688C19.8618 11.7277 19.7969 11.5952 19.7081 11.4791C19.6192 11.363 19.5081 11.2655 19.3812 11.1923C19.2543 11.1191 19.1141 11.0717 18.9686 11.0526ZM17.0904 7.81421C16.8881 7.72519 16.6637 7.69825 16.4458 7.73684L16.2458 7.80316L16.0458 7.90263L15.8791 8.04631C15.7791 8.14816 15.6998 8.26826 15.6457 8.4C15.58 8.53786 15.5494 8.68971 15.5568 8.8421C15.5535 8.98951 15.58 9.13607 15.6346 9.27316C15.692 9.40581 15.7751 9.52597 15.8791 9.62684C15.9829 9.72928 16.1061 9.81032 16.2415 9.86532C16.3769 9.92033 16.5219 9.94821 16.6681 9.94737C16.9629 9.94737 17.2455 9.83092 17.454 9.62364C17.6624 9.41637 17.7795 9.13524 17.7795 8.8421C17.7832 8.69712 17.7528 8.55328 17.6905 8.4221C17.5711 8.15652 17.3575 7.94402 17.0904 7.82526V7.81421Z" fill="#3B54A9"/>
</svg>
