<svg width="16" height="20" viewBox="0 0 16 20" fill="none" xmlns="http://www.w3.org/2000/svg">
<path fill-rule="evenodd" clip-rule="evenodd" d="M13 0H3C2.20435 0 1.44129 0.316071 0.878679 0.878693C0.316071 1.44128 0 2.20435 0 3V17C0 17.7957 0.316071 18.5587 0.878679 19.1213C1.44129 19.6839 2.20435 20 3 20H13C13.7957 20 14.5587 19.6839 15.1213 19.1213C15.6839 18.5587 16 17.7957 16 17V14C16 13.7348 15.8946 13.4804 15.7071 13.2929C15.5196 13.1053 15.2652 13 15 13C14.7348 13 14.4804 13.1053 14.2929 13.2929C14.1054 13.4804 14 13.7348 14 14V17C14 17.2652 13.8946 17.5196 13.7071 17.7071C13.5196 17.8947 13.2652 18 13 18H3C2.73478 18 2.48043 17.8947 2.29289 17.7071C2.10536 17.5196 2 17.2652 2 17V3C2 2.73477 2.10536 2.48044 2.29289 2.29291C2.48043 2.10535 2.73478 2 3 2H13C13.2652 2 13.5196 2.10535 13.7071 2.29291C13.8946 2.48044 14 2.73477 14 3V6C14 6.26523 14.1054 6.51956 14.2929 6.70709C14.4804 6.89465 14.7348 7 15 7C15.2652 7 15.5196 6.89465 15.7071 6.70709C15.8946 6.51956 16 6.26523 16 6V3C16 2.20435 15.6839 1.44128 15.1213 0.878693C14.5587 0.316071 13.7957 0 13 0ZM13.7747 9.41656C13.8508 9.49579 13.9105 9.58923 13.9503 9.69159C14.0341 9.89453 14.0344 10.1223 13.9513 10.3256C13.9117 10.428 13.8523 10.5216 13.7765 10.6011L9.61184 14.7782C9.5344 14.8564 9.44224 14.9187 9.34065 14.9612C9.23906 15.0037 9.13006 15.0256 9.01994 15.0258C8.90982 15.0259 8.80075 15.0043 8.69904 14.9621C8.59733 14.9199 8.50497 14.858 8.42731 14.7799C8.34901 14.7025 8.28682 14.6103 8.24431 14.5087C8.20181 14.4071 8.17985 14.2982 8.17968 14.188C8.17952 14.0779 8.20116 13.9688 8.24336 13.8671C8.28556 13.7654 8.34748 13.6731 8.42555 13.5954L11.1742 10.8469L4.84286 10.8563C4.62162 10.8566 4.40932 10.769 4.25265 10.6128C4.09598 10.4566 4.00778 10.2446 4.00745 10.0233C4.00712 9.80212 4.09469 9.58981 4.25089 9.43314C4.4071 9.27646 4.61914 9.18826 4.84038 9.18793L11.1718 9.17853L8.41491 6.43817C8.2576 6.28134 8.16903 6.06842 8.1687 5.84628C8.16854 5.7363 8.19004 5.62735 8.23198 5.52567C8.27393 5.42398 8.33548 5.33154 8.41315 5.25366C8.56999 5.09634 8.7829 5.00778 9.00504 5.00745C9.11504 5.00729 9.22399 5.02878 9.32567 5.07074C9.42735 5.11267 9.51978 5.17422 9.59767 5.25189L13.7747 9.41656Z" fill="#3B54A9"/>
</svg>
