<svg width="26" height="26" viewBox="0 0 26 26" fill="none" xmlns="http://www.w3.org/2000/svg">
<path fill-rule="evenodd" clip-rule="evenodd" d="M20.6902 0.585401C20.6303 0.401139 20.3697 0.401139 20.3098 0.585401L19.3101 3.6622C19.2833 3.74461 19.2065 3.8004 19.1199 3.8004H15.8847C15.691 3.8004 15.6104 4.04832 15.7672 4.1622L18.3845 6.06377C18.4545 6.1147 18.4839 6.20497 18.4571 6.28737L17.4574 9.36417C17.3975 9.54844 17.6084 9.70166 17.7652 9.58778L20.3824 7.68621C20.4525 7.63529 20.5475 7.63529 20.6176 7.68621L23.2348 9.58778C23.3916 9.70166 23.6025 9.54844 23.5426 9.36417L22.5429 6.28737C22.5161 6.20497 22.5455 6.1147 22.6155 6.06377L25.2328 4.1622C25.3896 4.04832 25.309 3.8004 25.1153 3.8004H21.8801C21.7935 3.8004 21.7167 3.74461 21.6899 3.6622L20.6902 0.585401ZM15.6933 12.6895C15.342 13.8864 14.6264 14.9442 13.646 15.7155C15.3329 16.385 16.8059 17.5009 17.9069 18.9437C19.0079 20.3865 19.6955 22.1017 19.896 23.9055C19.9241 24.1679 19.8474 24.4307 19.6826 24.6368C19.5178 24.8428 19.2782 24.9754 19.016 25.0055H18.906C18.6588 25.007 18.4198 24.9169 18.2351 24.7525C18.0505 24.5882 17.9332 24.3612 17.906 24.1155C17.6864 22.1607 16.7543 20.3553 15.2878 19.0443C13.8213 17.7333 11.9231 17.0086 9.95603 17.0086C7.98893 17.0086 6.09078 17.7333 4.62425 19.0443C3.15772 20.3553 2.22562 22.1607 2.00603 24.1155C1.97686 24.3807 1.84352 24.6235 1.63536 24.7904C1.42719 24.9573 1.16125 25.0347 0.896032 25.0055C0.630815 24.9764 0.388051 24.843 0.221143 24.6349C0.138499 24.5318 0.0769662 24.4134 0.0400573 24.2866C0.00314838 24.1597 -0.00841357 24.0268 0.00603184 23.8955C0.205595 22.0968 0.88953 20.386 1.98492 18.9454C3.08032 17.5049 4.54611 16.3886 6.22603 15.7155C5.24564 14.9442 4.53004 13.8864 4.17879 12.6895C3.82754 11.4925 3.85811 10.2158 4.26624 9.037C4.67438 7.8582 5.43978 6.83592 6.45596 6.11238C7.47215 5.38885 8.68858 5.00003 9.93603 5.00003C11.1835 5.00003 12.3999 5.38885 13.4161 6.11238C14.4323 6.83592 15.1977 7.8582 15.6058 9.037C16.014 10.2158 16.0445 11.4925 15.6933 12.6895ZM7.71375 14.3314C8.37155 14.7709 9.14491 15.0055 9.93603 15.0055C10.9969 15.0055 12.0143 14.5841 12.7645 13.834C13.5146 13.0838 13.936 12.0664 13.936 11.0055C13.936 10.2144 13.7014 9.44104 13.2619 8.78325C12.8224 8.12545 12.1977 7.61276 11.4668 7.31001C10.7359 7.00726 9.93159 6.92805 9.15567 7.08239C8.37975 7.23673 7.66701 7.61769 7.1076 8.1771C6.54819 8.73651 6.16723 9.44924 6.01289 10.2252C5.85855 11.0011 5.93776 11.8054 6.24051 12.5363C6.54326 13.2672 7.05595 13.8919 7.71375 14.3314Z" fill="#FFC274"/>
</svg>
